<!-- icon666.com - MILLIONS vector ICONS FREE --><svg id="Layer_1" enable-background="new 0 0 50 50" viewBox="0 0 50 50" xmlns="http://www.w3.org/2000/svg"><g id="_x35_7"><g><g enable-background="new"><g><path d="m39.4290771 43.4559174-.0100098 1.9699707c0 .9100342-.5999756 1.8300171-1.7999878 2.5200195-2.4199829 1.4099731-6.3400269 1.3999634-8.7700195 0-1.2199707-.7000122-1.8399658-1.6300049-1.8299561-2.5599976v-1.960022z" fill="#1d2943"></path></g><g><path d="m37.594368 40.9016876c2.4290581 1.40242 2.4418564 3.676712.0285873 5.0791512-2.4146614 1.4032478-6.3396301 1.4024582-8.7686863.000042-2.4318581-1.4040337-2.4446507-3.676712-.0299911-5.0799599 2.4132709-1.4024391 6.3382358-1.4032669 8.7700901.0007667z" fill="#4c5c75"></path></g></g><g enable-background="new"><g><path d="m36.5490723 39.3959198-.0100098 4.0299683c0 .4899902-.3200073.9799805-.9599609 1.3500366-1.3000488.75-3.4000244.75-4.7000122 0-.6600342-.3800049-.9800415-.8700562-.9800415-1.3700562v-4.0299683z" fill="#dedffb"></path></g><g><path d="m35.5635109 38.027874c1.3017654.7515755 1.3086243 1.9699745.0162544 2.7210159-1.2933044.7515869-3.396759.7515984-4.6985264.0000229s-1.3086243-1.9699745-.0153198-2.7215614c1.2923718-.7510414 3.3958264-.7510529 4.6975918.0005226z" fill="#f8f9fe"></path></g></g></g><g><g><g><path d="m35.5592842 4.8354697v1.9931674.0814347l-.0811844 32.4023895c0 .3662071-.2440567.691452-.6917.976223-.8947906.4881134-2.3186569.5288315-3.2134495 0-.4881115-.284771-.6914501-.6100159-.6914501-.976223l.0811863-32.4838257v-1.9931659c.0407181-1.3017159 1.016943-2.2779408 2.2779408-2.2779408s2.2779388.976225 2.3186569 2.2779408z" fill="#aa6256"></path></g></g></g><g><g><g><path d="m24.6525249 16.2870293c-.2764339.0387993-.5646839-.0669804-.7481384-.3019161-.2738495-.3504705-.2114639-.8572817.1390076-1.1311274l7.0389957-5.5121527c.3504734-.2738447.8574352-.2104187 1.1311378.1390123.2738495.3504715.2114639.8572826-.1390076 1.1311274l-7.0389957 5.5121536c-.1155357.0903931-.2478999.1439419-.3829994.1629029z" fill="#f3f1fc"></path></g></g><g><g><path d="m25.7834358 27.3500729c-.3379097 0-.6527309-.2140789-.7650166-.5519886-.1395721-.4229107.0891991-.8794022.5110607-1.0189724l7.0509567-2.3370266c.4260597-.1469173.8783531.08815 1.0189743.5110607.1395721.4229107-.0891991.8794022-.5110626 1.0189724l-7.0509567 2.3370266c-.0850009.0283336-.1700038.0409279-.2539558.0409279z" fill="#f3f1fc"></path></g></g><g><g><path d="m27.1252441 14.0818329c-1.7553711-1.0106812-3.284729-.9176025-4.2156372.039917l-.0131836-.0133057-1.4761963 1.3165283-.1519775.1352539c.7988281.6490479.5394897 2.2913818-.7788696 2.2913818-.5354614 0-.8931885-.2720337-1.0797729-.6368408l-.289917.2580566-2.4335938 2.1676025-.2389526.213623c1.2055054.8550415-.0355225 2.8730469-1.4248667 2.1104126-.1980591-.1087036-.4053345-.1967773-.6096191-.2915649l-3.2452393 2.9011841 4.2952881 6.9815674 4.8704844-1.68927c.2191772-.8509521 1.3685913-1.3586426 2.0647583-.7161865l.618103-.2143555 3.0053711-1.0371704.1936646-.0673218c-.104126-.6123657.336853-1.2503052.9239502-1.4116211.5783081-.1589355 1.1314087.117981 1.4259644.5947266l.2490234-.0865479 1.2366943-.4255371c1.3165894-.3059082 2.1809692-1.5293579 2.1942749-3.4974365.0133056-3.3245238-2.3139039-7.3006591-5.1197511-8.9230956z" fill="#e93565"></path></g><g><path d="m29.1731014 25.0395031c0 .7314644-.1329479 1.369751-.3590755 1.8883991l-13.3513298 4.6277351-4.2952824-6.9815369 10.2528343-9.1491451c.7580051-.0930967 1.6622715.1329489 2.6330929.6915302 2.805893 1.6223374 5.1330719 5.5984765 5.1197605 8.9230176z" fill="#f3f1fc"></path></g><g><path d="m26.0879173 27.0741615c0 .2925205-.0266228.5718117-.0664749.8244801l-3.0053978 1.0372143-3.1649704 1.1037712-4.3883781 1.5160103-4.2952824-6.9815369 2.9920874-2.6862564 2.5266027-2.2473927 2.433588-2.1676083c.5718117.0797863 1.196867.3059139 1.848465.6782207 2.805893 1.6224176 5.1330719 5.5985566 5.1197605 8.9230977z" fill="#e93565"></path></g><g><path d="m23.0160446 28.9358559-7.5533485 2.6197815-4.2952824-6.9815369 5.5186901-4.9336491c.3856983.1197186.7979393.305912 1.2101784.5452709 2.7527313 1.5957947 5.0532875 5.4522152 5.1197624 8.7501336z" fill="#f3f1fc"></path></g><g><path d="m19.8510742 30.0396271-4.3883781 1.5160103-4.2952824-6.9815369 2.9920874-2.6862564c.2127352.0930977.4255514.1995049.651597.3324547 2.5000629 1.4495353 4.627737 4.760767 5.0399761 7.8193283z" fill="#e93565"></path></g><g><g><path d="m13.5183954 24.5906448c-1.6397486-.9467087-2.9421148-.2045307-2.9474564 1.6796551-.0051937 1.8318748 1.2887154 4.0730152 2.9284639 5.0197239 1.5942049.920414 2.919342.1913834 2.9245358-1.6404915.0053425-1.8841858-1.3113384-4.1384735-2.9055433-5.0588875z" fill="#dedffb"></path></g></g></g></g><g><path d="m37.1675949 4.9478221c0 .8387165-.2616539 1.6161742-.7076073 2.2555447-.712986 1.0224786-1.8982506 1.6919408-3.2393265 1.6919408-2.1797905 0-3.9474716-1.767694-3.9474716-3.9474854 0-1.5479243.8913631-2.8879371 2.188921-3.5348239.5292301-.2643559 1.1266956-.4126356 1.7585506-.4126356 2.1797906-.0000002 3.9469338 1.7676808 3.9469338 3.9474594z" fill="#111d33"></path><path d="m37.1675949 4.9478221c0 .3304415-.0408325.6512022-.1171227.957993-.1176643.4717431-.3202248.9101672-.5904846 1.2975516-.5292358.2643561-1.1256218.4126487-1.757473.4126487-2.1803322 0-3.948019-1.7676806-3.948019-3.9480102 0-.8387165.2616615-1.6156366.7076149-2.2550073.5292301-.2643559 1.1266956-.4126356 1.7585506-.4126356.0553436 0 .1106873.0010625.1654892.0037516 2.1029511.0865098 3.7814446 1.8192721 3.7814446 3.9437082z" fill="#1d2943"></path><path d="m37.1675949 4.9478221c0 .3304415-.0408325.6512022-.1171227.957993-2.1029587-.0870342-3.7814522-1.8197961-3.7814522-3.9442453 0-.3304416.0408325-.6512024.1171303-.9574555 2.1029511.0865094 3.7814446 1.8192717 3.7814446 3.9437078z" fill="#4c5c75"></path></g></g></svg>