<!-- icon666.com - MILLIONS vector ICONS FREE --><svg viewBox="0 0 64 64" xmlns="http://www.w3.org/2000/svg" xmlns:xlink="http://www.w3.org/1999/xlink"><linearGradient id="a" gradientUnits="userSpaceOnUse" x1="15.587" x2="53.879" y1="10.999" y2="49.291"><stop offset="0" stop-color="#fdd835"></stop><stop offset=".04207" stop-color="#fccf33"></stop><stop offset=".26262" stop-color="#f9a22c"></stop><stop offset=".47483" stop-color="#f77f26"></stop><stop offset=".67378" stop-color="#f56622"></stop><stop offset=".85431" stop-color="#f4561f"></stop><stop offset="1" stop-color="#f4511e"></stop></linearGradient><path d="m4 23h27.49991c7.28079-.25916 7.27562-10.74248.00013-11a5.5542 5.5542 0 0 0 -5.50004 6 1.00008 1.00008 0 0 1 -2 0 7.54592 7.54592 0 0 1 7.49988-8c9.94373.39312 9.93854 14.609.00008 15h-27.49996a1 1 0 0 1 0-2zm42 16h-39a1.00012 1.00012 0 0 0 .00006 2h38.99994a5.50685 5.50685 0 0 1 5.5 5.5c-.26137 7.28059-10.7411 7.27681-11-.00009v-.49991a1.0001 1.0001 0 0 0 -2 0c-.22654 10.219 14.58006 10.77364 15 .49982a7.50819 7.50819 0 0 0 -7.5-7.49982zm8.5-25a7.54591 7.54591 0 0 0 -7.5 8 1.00008 1.00008 0 0 0 2 0c-.34751-7.55166 10.70657-8.11208 11-.49981a5.50684 5.50684 0 0 1 -5.5 5.49981h-32.5a1 1 0 0 0 0 2h32.5a7.5 7.5 0 0 0 0-15zm-52.5 14a.99943.99943 0 0 0 1 1h15a1 1 0 0 0 0-2h-15a.99943.99943 0 0 0 -1 1zm25 4a.99943.99943 0 0 0 -1-1h-23a1 1 0 0 0 0 2h23a.99943.99943 0 0 0 1-1zm15 1a1.0001 1.0001 0 0 0 0-2h-12a1.0001 1.0001 0 0 0 .00005 2zm13-2h-9a1.0001 1.0001 0 0 0 0 2h9a1.0001 1.0001 0 0 0 0-2zm-10 5a.99943.99943 0 0 0 -1-1h-39a1 1 0 0 0 0 2h39a.99943.99943 0 0 0 1-1z" fill="url(#a)"></path></svg>