<!-- icon666.com - MILLIONS vector ICONS FREE --><svg viewBox="-30 0 512 512" xmlns="http://www.w3.org/2000/svg"><path d="m451.539062 394.5c0 33.429688-24.917968 63.960938-70.167968 85.96875-41.8125 20.332031-97.070313 31.53125-155.601563 31.53125s-113.789062-11.199219-155.597656-31.53125c-45.25-22.007812-70.171875-52.539062-70.171875-85.96875s24.921875-63.960938 70.171875-85.96875c41.808594-20.332031 97.066406-31.53125 155.597656-31.53125s113.789063 11.199219 155.601563 31.53125c45.25 22.007812 70.167968 52.539062 70.167968 85.96875zm0 0" fill="#9afbff"></path><path d="m451.539062 394.5c0 33.429688-24.917968 63.960938-70.167968 85.96875-41.8125 20.332031-97.070313 31.53125-155.601563 31.53125v-235c58.53125 0 113.789063 11.199219 155.601563 31.53125 45.25 22.007812 70.167968 52.539062 70.167968 85.96875zm0 0" fill="#55f9ff"></path><path d="m389.941406 394.5c0 13.671875-9.429687 32.828125-54.320312 46.519531-29.550782 9.019531-68.5625 13.980469-109.851563 13.980469-41.289062 0-80.300781-4.960938-109.847656-13.980469-44.890625-13.691406-54.320313-32.847656-54.320313-46.519531s9.429688-32.828125 54.320313-46.519531c29.546875-9.019531 68.558594-13.980469 109.847656-13.980469 41.289063 0 80.300781 4.960938 109.851563 13.980469 44.890625 13.691406 54.320312 32.847656 54.320312 46.519531zm0 0" fill="#00da78"></path><path d="m389.941406 394.5c0 13.671875-9.429687 32.828125-54.320312 46.519531-29.550782 9.019531-68.5625 13.980469-109.851563 13.980469v-121c41.289063 0 80.300781 4.960938 109.851563 13.980469 44.890625 13.691406 54.320312 32.847656 54.320312 46.519531zm0 0" fill="#00b77a"></path><path d="m372.480469 146.710938c0 44.351562-22.585938 78.824218-47.75 113.136718l-59.390625 81.007813c-3.21875 4.390625-6.480469 8.90625-9.632813 13.273437-6.378906 8.835938-12.976562 17.972656-19.777343 26.828125l-10.160157 13.234375-.238281.308594-98.722656-134.652344c-25.164063-34.3125-47.75-68.792968-47.75-113.136718 0-80.898438 65.8125-146.710938 146.695312-146.710938h.613282c80.617187.324219 146.113281 66.015625 146.113281 146.710938zm0 0" fill="#ff623f"></path><path d="m302.796875 146.710938c0 42.46875-34.558594 77.019531-77.027344 77.019531s-77.027343-34.550781-77.027343-77.019531c0-42.476563 34.558593-77.027344 77.027343-77.027344s77.027344 34.550781 77.027344 77.027344zm0 0" fill="#fff"></path><path d="m372.480469 146.710938c0 44.351562-22.585938 78.824218-47.75 113.136718l-59.390625 81.007813c-3.21875 4.390625-6.480469 8.90625-9.632813 13.273437-6.378906 8.835938-12.976562 17.972656-19.777343 26.828125l-10.160157 13.234375v-394.191406h.597657c80.617187.324219 146.113281 66.015625 146.113281 146.710938zm0 0" fill="#e30020"></path><path d="m225.769531 223.730469v-154.046875c42.46875 0 77.027344 34.550781 77.027344 77.027344 0 42.46875-34.558594 77.019531-77.027344 77.019531zm0 0" fill="#d6d6d8"></path></svg>